<?xml version="1.0" encoding="UTF-8"?>
<svg width="59px" height="58px" viewBox="0 0 59 58" version="1.1" xmlns="http://www.w3.org/2000/svg" xmlns:xlink="http://www.w3.org/1999/xlink">
    <!-- Generator: Sketch 55.2 (78181) - https://sketchapp.com -->
    <title>Shape</title>
    <desc>Created with Sketch.</desc>
    <g id="Page-1" stroke="none" stroke-width="1" fill="none" fill-rule="evenodd">
        <g id="Artboard" transform="translate(-468.000000, -449.000000)" fill="#D21FAA">
            <g id="Group" transform="translate(468.800000, 423.600000)">
                <path d="M14.4048089,79.3415316 C0.629981332,71.3886312 -4.08962314,53.7748276 3.86327726,40 C11.8161777,26.2251724 29.4299813,21.505568 43.2048089,29.4584684 C56.9796364,37.4113688 61.6992409,55.0251724 53.7463405,68.8 C45.7934401,82.5748276 28.1796364,87.294432 14.4048089,79.3415316 Z M21.4131296,54.03117 L13.919888,57.8249836 C12.5324889,58.4902991 11.6415728,59.3650632 11.2471132,60.4493021 C10.8526535,61.5335409 10.9925565,62.6947521 11.6668264,63.9329703 C12.3745142,65.1133072 13.331183,65.7621078 14.5368616,65.8793919 C15.7425402,65.996676 16.9856561,65.6146576 18.2662466,64.7333254 L25.7667454,59.6459104 L25.038346,68.6431988 C24.9153851,70.1928888 25.2061055,71.4604679 25.9105157,72.4459742 C26.614926,73.4314805 27.7007873,73.923348 29.1681322,73.9215963 C30.5775957,73.8864173 31.630361,73.4330871 32.3264599,72.5615874 C33.0225587,71.6900877 33.3118441,70.4872655 33.1943248,68.9530848 L32.7328941,60.5604968 L39.6282636,65.0274038 C40.9261197,65.8538967 42.1556437,66.1971855 43.3168722,66.0572804 C44.4781008,65.9173753 45.4095889,65.2396773 46.1113646,64.0241662 C46.7797224,62.8665366 46.8925276,61.7354654 46.4497836,60.6309187 C46.0070397,59.5263719 45.0866266,58.6476875 43.6885167,57.994839 L36.311658,54.3046267 L43.8211602,50.5468659 C45.2419772,49.8236688 46.1640721,48.9283188 46.5874725,47.8607889 C47.0108729,46.793259 46.8854401,45.6404022 46.2111702,44.4021839 C45.5369003,43.1639656 44.5741157,42.4923404 43.3227874,42.3872882 C42.0714591,42.2822359 40.8055187,42.6703701 39.5249282,43.5517023 L32.1547275,48.5977707 L32.8396506,39.6919554 C32.9626115,38.1422655 32.6657753,36.8518618 31.9491333,35.8207059 C31.2324912,34.7895499 30.1983947,34.3082753 28.8468127,34.3768675 C27.4707672,34.3541603 26.411886,34.784666 25.6701375,35.6683975 C24.9283898,36.5521295 24.5995703,37.7900073 24.6836718,39.3820694 L25.1090922,47.834766 L18.249733,43.3077504 C16.9852948,42.423376 15.7641252,42.0656171 14.5861877,42.234463 C13.4082502,42.4033088 12.4851164,43.0665366 11.8167586,44.2241662 C11.1149829,45.4396773 10.9938234,46.5852187 11.4532763,47.6608247 C11.9127292,48.7364307 12.8247879,49.6295853 14.1894799,50.3403152 L21.4131296,54.03117 L21.4131296,54.03117 Z" id="Shape"></path>
            </g>
        </g>
    </g>
</svg>