<?xml version="1.0" encoding="UTF-8"?>
<svg width="81px" height="32px" viewBox="0 0 81 32" version="1.1" xmlns="http://www.w3.org/2000/svg" xmlns:xlink="http://www.w3.org/1999/xlink">
    <!-- Generator: Sketch 55.2 (78181) - https://sketchapp.com -->
    <title>Group 2</title>
    <desc>Created with Sketch.</desc>
    <g id="Page-1" stroke="none" stroke-width="1" fill="none" fill-rule="evenodd">
        <g id="Artboard" transform="translate(-49.000000, -71.000000)">
            <g id="Group-2" transform="translate(49.000000, 71.000000)">
                <path d="M4.50150278,24.7942286 C0.196869166,22.3089473 -1.27800723,16.8046336 1.20727414,12.5 C3.69255552,8.19536639 9.19686917,6.72048999 13.5015028,9.20577137 C17.8061364,11.6910527 19.2810128,17.1953664 16.7957314,21.5 C14.31045,25.8046336 8.80613639,27.27951 4.50150278,24.7942286 Z M6.69160301,16.8847406 L4.349965,18.0703074 C3.91640277,18.2782185 3.63799151,18.5515823 3.51472286,18.8904069 C3.39145422,19.2292315 3.43517391,19.59211 3.64588325,19.9790532 C3.86703568,20.3479085 4.16599469,20.5506587 4.54276925,20.58731 C4.91954381,20.6239612 5.30801753,20.5045805 5.70820205,20.2291642 L8.05210794,18.639347 L7.82448311,21.4509996 C7.78605785,21.9352777 7.87690796,22.3313962 8.09703617,22.6393669 C8.31716438,22.9473376 8.65649603,23.1010463 9.11504132,23.1004988 C9.55549864,23.0895054 9.88448782,22.9478397 10.1020187,22.6754961 C10.3195496,22.4031524 10.4099513,22.0272705 10.3732265,21.547839 L10.2290294,18.9251553 L12.3838324,20.3210637 C12.7894124,20.5793427 13.1736386,20.6866205 13.5365226,20.6429001 C13.8994065,20.5991798 14.1904965,20.3873992 14.4098014,20.0075519 C14.6186632,19.6457927 14.6539149,19.2923329 14.5155574,18.9471621 C14.3771999,18.6019912 14.0895708,18.3274024 13.6526615,18.1233872 L11.3473931,16.9701958 L13.6941126,15.7958956 C14.1381179,15.5698965 14.4262725,15.2900996 14.5585852,14.9564965 C14.6908978,14.6228934 14.6517,14.2626257 14.4409907,13.8756825 C14.2302813,13.4887393 13.9294111,13.2788564 13.5383711,13.2460276 C13.147331,13.2131987 12.7517246,13.3344906 12.3515401,13.609907 L10.0483523,15.1868034 L10.2623908,12.4037361 C10.3008161,11.919458 10.2080548,11.5162068 9.98410414,11.1939706 C9.76015349,10.8717344 9.43699834,10.721336 9.01462898,10.7427711 C8.58461475,10.7356751 8.25371438,10.8702081 8.02191796,11.1463742 C7.79012181,11.4225405 7.68736573,11.8093773 7.71364744,12.3068967 L7.84659132,14.9483644 L5.70304157,13.533672 C5.30790461,13.257305 4.92628912,13.1455054 4.55818364,13.1982697 C4.19007817,13.251034 3.90159886,13.4582927 3.69273706,13.8200519 C3.47343217,14.1998992 3.4355698,14.5578808 3.57914883,14.8940077 C3.72272787,15.2301346 4.00774623,15.5092454 4.43421246,15.7313485 L6.69160301,16.8847406 L6.69160301,16.8847406 Z" id="Shape" fill="#D21FAA"></path>
                <path d="M34.312843,21.7836584 C33.907138,22.6060415 33.2807234,23.2892012 32.4335895,23.8331504 C31.3212531,24.5473874 30.0625756,24.9045005 28.6575192,24.9045005 C27.1119571,24.9045005 25.7654649,24.5473874 24.6180022,23.8331504 C23.4705395,23.1189134 22.5806837,22.1178257 21.9484083,20.8298573 C21.316133,19.5418889 21,18.0431845 21,16.3336992 C21,15.0457308 21.1814837,13.8807224 21.5444566,12.8386389 C21.9074295,11.7965553 22.4226092,10.9008453 23.090011,10.1514819 C23.7574128,9.40211846 24.5653081,8.82254138 25.5137212,8.41273326 C26.4621343,8.00292514 27.5100565,7.79802415 28.6575192,7.79802415 C30.1094108,7.79802415 31.379797,8.1551373 32.4687157,8.86937431 C33.2619368,9.38965911 33.8532257,10.0310923 34.2425906,10.7936849 L34.2425906,10.0812294 C34.2425906,9.3552836 34.4357829,8.80497809 34.8221734,8.43029638 C35.208564,8.05561467 35.7413065,7.86827662 36.4204171,7.86827662 C37.1229453,7.86827662 37.6615422,8.05561467 38.0362239,8.43029638 C38.4109056,8.80497809 38.5982437,9.3552836 38.5982437,10.0812294 L38.5982437,23.6048299 C38.5982437,26.3915251 37.8606001,28.4873695 36.3852909,29.8924259 C34.9099816,31.2974823 32.7673027,32 29.9571899,32 C28.6926391,32 27.4690875,31.8829137 26.2864984,31.6487377 C25.1039092,31.4145616 24.0325697,31.0515941 23.0724479,30.5598244 C22.6275133,30.3256483 22.3289433,30.0446412 22.1767289,29.7167947 C22.0245144,29.3889482 21.9776799,29.0552523 22.0362239,28.715697 C22.0947679,28.3761417 22.2352715,28.0775717 22.4577387,27.819978 C22.680206,27.5623844 22.9553588,27.386755 23.2832053,27.2930845 C23.6110518,27.1994141 23.950602,27.2462486 24.3018661,27.4335895 C25.3322408,27.9487768 26.3099112,28.2824727 27.2349067,28.4346872 C28.1599022,28.5869016 28.9502346,28.6630077 29.6059276,28.6630077 C31.1749072,28.6630077 32.3516243,28.2824773 33.1361142,27.521405 C33.920604,26.7603328 34.312843,25.6304502 34.312843,24.1317234 L34.312843,21.7836584 L34.312843,21.7836584 Z M29.8518112,21.5675082 C30.7650979,21.5675082 31.5495759,21.3567529 32.2052689,20.935236 C32.8609619,20.5137191 33.3702872,19.9107247 33.7332602,19.1262349 C34.0962331,18.3417451 34.2777168,17.4109092 34.2777168,16.3336992 C34.2777168,14.7178843 33.8796234,13.4474982 33.0834248,12.5225027 C32.2872262,11.5975073 31.2100324,11.1350165 29.8518112,11.1350165 C28.9385245,11.1350165 28.1540465,11.3457718 27.4983535,11.7672887 C26.8426605,12.1888056 26.3333351,12.7859456 25.9703622,13.5587267 C25.6073893,14.3315077 25.4259056,15.2564893 25.4259056,16.3336992 C25.4259056,17.9495141 25.8239989,19.2257546 26.6201976,20.1624588 C27.4163962,21.0991631 28.49359,21.5675082 29.8518112,21.5675082 Z M45.3424808,25.571899 C44.6399526,25.571899 44.1013557,25.3611437 43.726674,24.9396268 C43.3519923,24.5181099 43.1646542,23.9326785 43.1646542,23.183315 L43.1646542,10.2919868 C43.1646542,9.5192058 43.3519923,8.92792009 43.726674,8.51811196 C44.1013557,8.10830384 44.6399526,7.90340285 45.3424808,7.90340285 C46.045009,7.90340285 46.5894602,8.10830384 46.9758507,8.51811196 C47.3622412,8.92792009 47.5554336,9.5192058 47.5554336,10.2919868 L47.5554336,23.183315 C47.5554336,23.9326785 47.3680955,24.5181099 46.9934138,24.9396268 C46.6187321,25.3611437 46.0684266,25.571899 45.3424808,25.571899 Z M45.3424808,4.63666301 C44.5228645,4.63666301 43.8847443,4.43176202 43.428101,4.0219539 C42.9714577,3.61214577 42.7431394,3.04427732 42.7431394,2.3183315 C42.7431394,1.56896808 42.9714577,0.995245313 43.428101,0.597145993 C43.8847443,0.199046674 44.5228645,0 45.3424808,0 C46.1855146,0 46.8294892,0.199046674 47.2744237,0.597145993 C47.7193582,0.995245313 47.9418222,1.56896808 47.9418222,2.3183315 C47.9418222,3.04427732 47.7193582,3.61214577 47.2744237,4.0219539 C46.8294892,4.43176202 46.1855146,4.63666301 45.3424808,4.63666301 Z M58.4094402,25.6772777 C57.4024831,25.6772777 56.3369979,25.5719001 55.2129528,25.3611416 C54.0889077,25.1503831 53.0819657,24.7874157 52.1920966,24.2722283 C51.8174149,24.0380523 51.5539708,23.7628995 51.4017563,23.4467618 C51.2495419,23.1306241 51.1909987,22.8144912 51.2261251,22.4983535 C51.2612515,22.1822158 51.3783378,21.907063 51.5773875,21.6728869 C51.7764371,21.4387109 52.034027,21.2864987 52.3501647,21.2162459 C52.6663023,21.1459931 53.0117069,21.2045362 53.3863886,21.3918771 C54.3230929,21.8368116 55.20124,22.1470902 56.0208562,22.3227223 C56.8404724,22.4983543 57.6483678,22.586169 58.4445664,22.586169 C59.5686115,22.586169 60.4057784,22.3929767 60.9560922,22.0065862 C61.506406,21.6201957 61.7815587,21.1108703 61.7815587,20.478595 C61.7815587,19.93999 61.600075,19.5243337 61.2371021,19.2316136 C60.8741292,18.9388935 60.329678,18.7222839 59.6037322,18.5817783 L56.0911087,17.9143798 C54.639217,17.6333685 53.5327517,17.1006259 52.7716795,16.3161361 C52.0106072,15.5316463 51.6300768,14.51885 51.6300768,13.2777168 C51.6300768,12.1536717 51.9403555,11.1818555 52.5609221,10.3622393 C53.1814886,9.54262305 54.0420728,8.91035715 55.1427003,8.46542261 C56.2433279,8.02048808 57.5078597,7.79802415 58.9363337,7.79802415 C59.9667084,7.79802415 60.9326702,7.90925611 61.8342481,8.13172338 C62.7358259,8.35419065 63.6081187,8.69959517 64.4511526,9.16794731 C64.8024167,9.35528817 65.0424436,9.60116935 65.1712404,9.90559824 C65.3000372,10.2100271 65.3293088,10.5203058 65.259056,10.8364435 C65.1888032,11.1525812 65.0482996,11.4335882 64.8375412,11.6794731 C64.6267827,11.925358 64.3633386,12.0775701 64.0472009,12.1361142 C63.7310632,12.1946582 63.37395,12.1302607 62.9758507,11.9429199 C62.2499049,11.5682382 61.5532415,11.2989397 60.8858397,11.1350165 C60.2184379,10.9710932 59.5803177,10.8891328 58.9714599,10.8891328 C57.8239972,10.8891328 56.9751217,11.0881795 56.4248079,11.4862788 C55.8744941,11.8843781 55.5993414,12.4112664 55.5993414,13.0669594 C55.5993414,13.5587291 55.7632622,13.9685311 56.0911087,14.2963776 C56.4189552,14.6242241 56.9224262,14.846688 57.6015368,14.9637761 L61.1141603,15.6311745 C62.6363047,15.9121858 63.7896046,16.4273654 64.5740944,17.1767289 C65.3585842,17.9260923 65.7508233,18.9330343 65.7508233,20.1975851 C65.7508233,21.9070704 65.0834315,23.2477083 63.7486279,24.219539 C62.4138243,25.1913697 60.6341128,25.6772777 58.4094402,25.6772777 Z M76.9560922,25.6772777 C75.4339477,25.6772777 74.1635616,25.4196879 73.1448957,24.9045005 C72.1262298,24.3893132 71.3710233,23.6341067 70.8792536,22.6388584 C70.3874838,21.6436101 70.1416026,20.4083499 70.1416026,18.9330406 L70.1416026,11.4511526 L68.3150384,11.4511526 C67.7530159,11.4511526 67.3197966,11.3047947 67.0153677,11.0120746 C66.7109388,10.7193546 66.5587267,10.3154069 66.5587267,9.80021954 C66.5587267,9.26161458 66.7109388,8.8518126 67.0153677,8.57080132 C67.3197966,8.28979003 67.7530159,8.1492865 68.3150384,8.1492865 L70.1416026,8.1492865 L70.1416026,4.95279912 C70.1416026,4.2268533 70.334795,3.67654779 70.7211855,3.30186608 C71.107576,2.92718437 71.6520272,2.73984632 72.3545554,2.73984632 C73.0570836,2.73984632 73.5956805,2.92718437 73.9703622,3.30186608 C74.345044,3.67654779 74.532382,4.2268533 74.532382,4.95279912 L74.532382,8.1492865 L78.2557629,8.1492865 C78.8177855,8.1492865 79.2510047,8.28979003 79.5554336,8.57080132 C79.8598625,8.8518126 80.0120746,9.26161458 80.0120746,9.80021954 C80.0120746,10.3154069 79.8598625,10.7193546 79.5554336,11.0120746 C79.2510047,11.3047947 78.8177855,11.4511526 78.2557629,11.4511526 L74.532382,11.4511526 L74.532382,18.687157 C74.532382,19.8112021 74.7782632,20.6542233 75.2700329,21.2162459 C75.7618027,21.7782685 76.5579894,22.0592755 77.6586169,22.0592755 C78.0567162,22.0592755 78.4079751,22.0241496 78.712404,21.9538968 C79.0168328,21.883644 79.2861313,21.8368095 79.5203074,21.8133919 C79.8013186,21.7899743 80.0354912,21.877789 80.2228321,22.0768386 C80.4101729,22.2758883 80.5038419,22.679836 80.5038419,23.2886937 C80.5038419,23.7570459 80.4277359,24.1727022 80.2755214,24.5356751 C80.123307,24.898648 79.8481542,25.1503835 79.4500549,25.2908891 C79.145626,25.3845596 78.7475326,25.4723743 78.2557629,25.5543359 C77.7639932,25.6362975 77.3307739,25.6772777 76.9560922,25.6772777 Z" id="gistfrust" fill="#FFFFFF" fill-rule="nonzero"></path>
            </g>
        </g>
    </g>
</svg>