<svg width="264" height="103" xmlns="http://www.w3.org/2000/svg"><g fill="none" fill-rule="evenodd"><path d="M14.002 77.245C.612 69.514-3.975 52.392 3.755 39.002c7.731-13.39 24.853-17.977 38.243-10.247 13.39 7.731 17.977 24.853 10.247 38.243-7.731 13.39-24.853 17.977-38.243 10.247zm7.15-24.355-7.326 3.645c-1.356.639-2.227 1.48-2.613 2.521-.385 1.042-.248 2.157.41 3.347.693 1.134 1.628 1.758 2.806 1.87 1.179.113 2.394-.254 3.646-1.1l7.332-4.889-.712 8.645c-.12 1.489.164 2.706.853 3.653.688.947 1.75 1.42 3.184 1.418 1.378-.034 2.407-.47 3.088-1.307.68-.837.963-1.993.848-3.467l-.451-8.063 6.74 4.292c1.27.794 2.471 1.124 3.606.99 1.136-.135 2.046-.786 2.732-1.954.653-1.112.764-2.2.33-3.26-.432-1.062-1.332-1.906-2.698-2.533l-7.212-3.546 7.341-3.61c1.39-.695 2.29-1.555 2.705-2.58.413-1.026.29-2.134-.368-3.324-.66-1.19-1.6-1.835-2.824-1.936-1.223-.1-2.46.272-3.712 1.12l-7.205 4.847.67-8.556c.12-1.49-.17-2.729-.871-3.72-.7-.99-1.712-1.453-3.033-1.387-1.345-.022-2.38.392-3.105 1.241-.725.85-1.047 2.038-.965 3.568l.416 8.121-6.705-4.35c-1.236-.849-2.43-1.193-3.581-1.03-1.152.162-2.054.799-2.708 1.911-.686 1.168-.804 2.269-.355 3.302.45 1.034 1.34 1.892 2.675 2.575l7.061 3.546z" fill="#D21FAA"/><path d="M115.12 70.074c-1.314 2.65-3.343 4.852-6.087 6.605-3.603 2.302-7.68 3.453-12.23 3.453-5.007 0-9.368-1.15-13.084-3.453-3.717-2.302-6.6-5.528-8.647-9.679C73.024 62.849 72 58.019 72 52.51c0-4.152.588-7.906 1.763-11.265 1.176-3.358 2.845-6.245 5.006-8.66 2.162-2.415 4.779-4.283 7.85-5.604C89.693 25.661 93.087 25 96.803 25c4.703 0 8.818 1.15 12.345 3.453 2.569 1.677 4.484 3.744 5.745 6.202v-2.297c0-2.34.626-4.113 1.877-5.32 1.252-1.208 2.977-1.812 5.177-1.812 2.276 0 4.02.604 5.234 1.812 1.213 1.207 1.82 2.98 1.82 5.32v43.585c0 8.982-2.39 15.736-7.168 20.265-4.778 4.528-11.718 6.792-20.82 6.792-4.096 0-8.059-.377-11.89-1.132-3.83-.755-7.3-1.925-10.41-3.51-1.44-.754-2.408-1.66-2.9-2.716-.494-1.057-.645-2.133-.456-3.227a5.844 5.844 0 0 1 1.366-2.887 5.435 5.435 0 0 1 2.673-1.698c1.062-.302 2.162-.15 3.3.453 3.337 1.66 6.504 2.736 9.5 3.226 2.996.491 5.555.736 7.68.736 5.081 0 8.892-1.226 11.433-3.679 2.541-2.453 3.812-6.094 3.812-10.924v-7.568zM100.5 69c2.992 0 5.562-.687 7.71-2.06 2.148-1.374 3.817-3.34 5.006-5.896 1.19-2.557 1.784-5.59 1.784-9.101 0-5.266-1.304-9.407-3.913-12.421C108.48 36.507 104.95 35 100.5 35c-2.992 0-5.562.687-7.71 2.06-2.148 1.374-3.817 3.32-5.006 5.839C86.594 45.418 86 48.432 86 51.943c0 5.266 1.304 9.425 3.913 12.478C92.52 67.474 96.05 69 100.5 69zm50.444 13c-2.24 0-3.957-.68-5.152-2.04-1.195-1.36-1.792-3.248-1.792-5.666V32.706c0-2.493.597-4.4 1.792-5.723 1.195-1.322 2.912-1.983 5.152-1.983s3.976.661 5.208 1.983c1.232 1.322 1.848 3.23 1.848 5.723v41.588c0 2.418-.597 4.306-1.792 5.666-1.195 1.36-2.95 2.04-5.264 2.04zm-.444-67c-2.68 0-4.767-.663-6.26-1.989C142.747 11.686 142 9.848 142 7.5c0-2.424.747-4.28 2.24-5.568C145.733.644 147.82 0 150.5 0c2.757 0 4.863.644 6.318 1.932C158.273 3.22 159 5.076 159 7.5c0 2.348-.727 4.186-2.182 5.511C155.363 14.337 153.257 15 150.5 15zm42.76 67c-3.256 0-6.701-.342-10.336-1.026-3.635-.683-6.89-1.86-9.768-3.532-1.212-.76-2.064-1.652-2.556-2.678-.492-1.025-.682-2.05-.568-3.076.114-1.026.492-1.919 1.136-2.678.643-.76 1.476-1.254 2.499-1.482 1.022-.227 2.139-.037 3.35.57 3.03 1.444 5.87 2.45 8.52 3.02 2.65.57 5.262.854 7.837.854 3.635 0 6.342-.626 8.121-1.88 1.78-1.253 2.67-2.905 2.67-4.956 0-1.748-.587-3.096-1.76-4.046-1.175-.95-2.935-1.652-5.283-2.108l-11.358-2.165c-4.695-.911-8.273-2.64-10.734-5.184-2.461-2.545-3.692-5.83-3.692-9.857 0-3.646 1.004-6.799 3.01-9.458 2.007-2.659 4.79-4.71 8.349-6.153 3.559-1.443 7.648-2.165 12.267-2.165 3.332 0 6.456.36 9.371 1.083a34.218 34.218 0 0 1 8.462 3.361c1.136.608 1.912 1.405 2.329 2.393a4.88 4.88 0 0 1 .284 3.02 6.218 6.218 0 0 1-1.363 2.734 4.306 4.306 0 0 1-2.556 1.482c-1.022.19-2.177-.02-3.464-.627-2.348-1.215-4.6-2.09-6.759-2.62-2.158-.533-4.221-.798-6.19-.798-3.71 0-6.456.645-8.235 1.937-1.78 1.291-2.67 3-2.67 5.127 0 1.596.53 2.925 1.59 3.989 1.06 1.063 2.689 1.785 4.885 2.165l11.359 2.165c4.922.911 8.651 2.582 11.188 5.013 2.537 2.431 3.805 5.698 3.805 9.8 0 5.546-2.158 9.895-6.474 13.047C206.209 80.424 200.454 82 193.26 82zm59.292 0c-4.912 0-9.012-.831-12.299-2.493-3.287-1.662-5.724-4.099-7.31-7.31-1.588-3.21-2.381-7.195-2.381-11.955V36.104h-5.894c-1.814 0-3.212-.472-4.194-1.416-.983-.945-1.474-2.248-1.474-3.91 0-1.738.491-3.06 1.474-3.966.982-.907 2.38-1.36 4.194-1.36h5.894V15.139c0-2.342.623-4.117 1.87-5.326C233.679 8.604 235.436 8 237.702 8c2.268 0 4.006.604 5.215 1.813 1.209 1.209 1.813 2.984 1.813 5.326v10.313h12.016c1.813 0 3.211.453 4.194 1.36.982.906 1.473 2.228 1.473 3.966 0 1.662-.491 2.965-1.473 3.91-.983.944-2.38 1.416-4.194 1.416H244.73V59.45c0 3.626.794 6.346 2.38 8.159 1.588 1.813 4.157 2.72 7.709 2.72 1.284 0 2.418-.114 3.4-.34a21.128 21.128 0 0 1 2.607-.454c.907-.075 1.663.208 2.267.85.605.643.907 1.946.907 3.91 0 1.511-.246 2.852-.737 4.023-.491 1.171-1.379 1.983-2.664 2.436-.982.303-2.266.586-3.853.85-1.587.265-2.985.397-4.194.397z" fill="#FFF" fill-rule="nonzero"/></g></svg>